<svg width="372" height="85" viewBox="0 0 372 85" fill="none" xmlns="http://www.w3.org/2000/svg">
<g clip-path="url(#clip0_2001_2144)">
<path d="M372 0H0.000488281V51.3568H372V0Z" fill="white"/>
<path d="M372 0H0.000488281V51.3568H372V0Z" fill="white"/>
<path d="M45.8545 34.4067L43.8753 42.0388H15.8481L24.0353 10.7769H34.8853L28.6138 34.4067H45.8545Z" fill="#E1251B"/>
<path d="M51.8707 25.6195C52.5145 23.4656 53.8896 21.8112 56.004 20.6406C58.1104 19.4935 61.3535 18.9004 65.7173 18.9004C70.6455 18.9004 73.976 19.4545 75.6771 20.5626C77.394 21.6941 78.2127 23.3095 78.1491 25.4478C78.1094 26.8681 77.6086 29.217 76.6706 32.4634C75.7645 35.5459 75.3114 37.6919 75.2796 38.8937C75.2558 39.916 75.4386 40.9695 75.8122 42.0308H66.4168C66.2101 41.1334 66.1227 40.2828 66.1307 39.4556C63.5473 41.5314 60.7096 42.5693 57.6017 42.5693C54.4938 42.5693 52.1568 41.8982 50.7976 40.5559C49.4463 39.2137 48.7786 37.6763 48.8343 35.9049C48.882 33.9071 49.5338 32.3775 50.8055 31.324C52.0773 30.2705 53.6273 29.5604 55.4476 29.1858C57.2837 28.8034 59.7796 28.4756 62.9273 28.1947C65.7412 27.9216 67.6012 27.6484 68.5471 27.3987C68.7537 26.7354 68.8571 26.2203 68.8809 25.8614C68.8889 25.2839 68.5709 24.8313 67.9509 24.5035C67.323 24.1523 66.4804 23.9963 65.4073 23.9963C64.3343 23.9963 63.4122 24.1523 62.7048 24.4645C62.0053 24.7923 61.3773 25.4634 60.8448 26.4857L51.8707 25.6117V25.6195ZM67.3548 31.9093C62.8955 32.5804 60.2804 33.1657 59.4855 33.6808C58.7066 34.1958 58.2853 34.8045 58.2773 35.4991C58.2455 36.217 58.5079 36.7945 59.0563 37.2159C59.5968 37.6217 60.3043 37.8402 61.1707 37.8402C62.3868 37.8402 63.6189 37.3876 64.835 36.5136C66.0432 35.6161 66.8937 34.0866 67.3468 31.9093" fill="#E1251B"/>
<path d="M133.425 10.7769L131.653 17.4959H114.015L112.719 22.4591H129.737L127.996 28.8036H111.01L109.38 34.9218H128.529L126.637 42.0388H96.7817L105.017 10.7769H133.425Z" fill="#E1251B"/>
<path d="M163.17 27.2895L154.418 27.7109C154.06 25.7365 152.622 24.7454 150.062 24.7454C147.701 24.7454 145.873 25.6038 144.562 27.3129C143.242 29.0219 142.567 30.8948 142.503 32.916C142.471 34.1412 142.892 35.0698 143.791 35.7254C144.657 36.3809 145.627 36.7008 146.684 36.7008C149.243 36.7008 151.207 35.421 152.526 32.8692L161.54 33.751C159.14 39.6273 154.021 42.5771 146.151 42.5771C137.273 42.5771 132.925 39.2995 133.108 32.7755C133.195 28.9907 134.745 25.7209 137.734 22.9896C140.738 20.2661 144.903 18.9004 150.197 18.9004C154.013 18.9004 157.041 19.5949 159.283 21.0074C161.516 22.4121 162.812 24.4957 163.154 27.2895" fill="#E1251B"/>
<path d="M181.666 18.9084C186.181 18.9084 189.44 19.9307 191.451 21.9753C193.454 24.0277 194.44 26.4157 194.352 29.1626C194.297 31.254 193.637 33.3845 192.413 35.5305C191.149 37.6922 189.337 39.409 186.904 40.681C184.504 41.9452 181.563 42.5852 178.081 42.5852C173.67 42.5852 170.443 41.6097 168.376 39.6431C166.325 37.6922 165.347 35.2574 165.403 32.3544C165.475 30.0445 166.166 27.8516 167.486 25.7134C168.781 23.5829 170.649 21.9129 173.074 20.7111C175.506 19.5171 178.36 18.9163 181.658 18.9163M178.844 36.7167C180.657 36.7167 182.103 35.8973 183.216 34.2351C184.305 32.5885 184.885 30.7468 184.941 28.7178C184.965 27.2585 184.599 26.2362 183.804 25.6353C183.017 25.05 182.127 24.7535 181.157 24.7535C179.115 24.7535 177.565 25.5807 176.492 27.2429C175.426 28.9051 174.87 30.6063 174.83 32.3466C174.799 33.5874 175.18 34.6409 175.935 35.4759C176.73 36.3031 177.692 36.7167 178.844 36.7167Z" fill="#E1251B"/>
<path d="M210.345 22.9196C213.087 20.2429 216.346 18.9084 220.185 18.9084C222.459 18.9084 224.152 19.4313 225.28 20.477C226.385 21.5227 226.926 22.8025 226.87 24.3243C226.846 25.2373 226.497 27.0322 225.781 29.6933L222.546 42.0389H212.864L215.623 31.5272C216.306 28.9597 216.64 27.477 216.648 27.1102C216.68 25.8616 216.044 25.2373 214.796 25.2373C213.373 25.2373 212.117 25.8304 211.012 27.04C209.931 28.234 209.073 29.9742 208.485 32.2373L205.854 42.0311H196.125L202.126 19.4079H211.163L210.249 22.8181L210.321 22.9118L210.345 22.9196Z" fill="#E1251B"/>
<path d="M246.456 18.9084C250.955 18.9084 254.222 19.9307 256.233 21.9831C258.244 24.0277 259.206 26.4235 259.15 29.1704C259.07 31.2619 258.427 33.3923 257.195 35.5461C255.947 37.7078 254.126 39.4168 251.718 40.6888C249.309 41.953 246.36 42.593 242.871 42.593C238.467 42.593 235.232 41.6175 233.181 39.6509C231.131 37.7 230.137 35.2652 230.225 32.3622C230.288 30.0523 230.964 27.8594 232.275 25.7212C233.587 23.5907 235.455 21.9285 237.871 20.7189C240.28 19.5249 243.149 18.9241 246.456 18.9241M243.65 36.7323C245.446 36.7323 246.901 35.9129 248.006 34.2507C249.111 32.6041 249.683 30.7624 249.731 28.7334C249.77 27.2741 249.389 26.2518 248.61 25.6509C247.807 25.0656 246.925 24.7691 245.939 24.7691C243.912 24.7691 242.37 25.5885 241.297 27.2585C240.232 28.9207 239.676 30.6297 239.628 32.3622C239.596 33.603 239.978 34.6565 240.749 35.4915C241.536 36.3187 242.497 36.7323 243.65 36.7323Z" fill="#E1251B"/>
<path d="M291.23 22.7479C293.09 21.2652 294.783 20.2585 296.31 19.72C297.812 19.1738 299.418 18.9084 301.111 18.9084C303.384 18.9084 305.085 19.4547 306.19 20.5394C307.311 21.6242 307.835 22.9508 307.788 24.496C307.78 25.4246 307.644 26.3142 307.414 27.1883L303.44 42.0467H293.75L296.325 32.3934C296.969 29.9274 297.335 28.4603 297.414 27.9921C297.502 27.516 297.542 27.1961 297.542 27.001C297.565 25.8304 296.969 25.2373 295.729 25.2373C294.283 25.2373 293.09 25.7914 292.113 26.8605C291.151 27.9374 290.356 29.6543 289.744 31.9798L287.089 42.0467H277.392L279.903 32.5573C280.579 30.0054 280.953 28.5149 281.024 28.0467C281.12 27.5707 281.167 27.2273 281.167 26.9698C281.199 25.8226 280.555 25.2451 279.26 25.2451C278.282 25.2451 277.257 25.6977 276.136 26.5952C275.023 27.5004 274.188 29.03 273.608 31.1916L270.707 42.0467H260.978L266.995 19.4235H275.977L275.11 22.6699L275.198 22.7557C278.02 20.1961 281.175 18.9163 284.625 18.9163C286.207 18.9163 287.59 19.2518 288.79 19.9151C290.006 20.5785 290.825 21.5383 291.23 22.7557" fill="#E1251B"/>
<path d="M325.467 19.4155L319.473 42.0387H309.776L315.753 19.4155H325.475H325.467ZM330.029 10.2383L321.198 16.6062H316.508L321.929 10.2383H330.037H330.029Z" fill="#E1251B"/>
<path d="M329.863 25.6195C330.506 23.4734 331.874 21.819 333.988 20.6406C336.094 19.4935 339.329 18.9004 343.709 18.9004C348.653 18.9004 351.984 19.4545 353.685 20.5626C355.386 21.6863 356.205 23.3017 356.149 25.44C356.109 26.8603 355.616 29.2092 354.663 32.4634C353.78 35.5381 353.311 37.6841 353.295 38.8937C353.256 39.916 353.438 40.9695 353.828 42.0308H344.401C344.218 41.1334 344.123 40.2828 344.146 39.4556C341.571 41.5314 338.717 42.5693 335.594 42.5693C332.47 42.5693 330.141 41.8904 328.797 40.5559C327.438 39.2137 326.778 37.6685 326.826 35.9049C326.882 33.8993 327.542 32.3775 328.805 31.3318C330.085 30.2783 331.627 29.5604 333.455 29.1858C335.284 28.8034 337.787 28.4835 340.919 28.1947C343.725 27.9216 345.609 27.6484 346.531 27.3987C346.746 26.7354 346.857 26.2125 346.865 25.8614C346.881 25.2839 346.587 24.8235 345.935 24.5035C345.299 24.1523 344.456 23.9963 343.399 23.9963C342.342 23.9963 341.396 24.1523 340.705 24.4645C340.005 24.7923 339.385 25.4634 338.837 26.4857L329.863 25.6117V25.6195ZM345.355 31.9093C340.887 32.5804 338.272 33.1657 337.485 33.6808C336.69 34.1958 336.293 34.8045 336.269 35.4991C336.253 36.217 336.508 36.7945 337.072 37.2159C337.605 37.6217 338.304 37.8402 339.178 37.8402C340.395 37.8402 341.619 37.3876 342.843 36.5136C344.051 35.6161 344.886 34.0866 345.355 31.9093Z" fill="#E1251B"/>
<path d="M372 51.3569H0.000488281V84.2265H372V51.3569Z" fill="#1A428A"/>
<path d="M123.413 57.4514H131.044C132.546 57.4514 133.762 57.6543 134.692 58.0523C135.614 58.4503 136.385 59.0278 136.989 59.7769C137.594 60.5261 138.031 61.4001 138.301 62.3912C138.571 63.3823 138.706 64.4436 138.706 65.5517C138.706 67.2998 138.5 68.6498 138.102 69.6097C137.697 70.5696 137.133 71.3734 136.417 72.0289C135.702 72.6766 134.931 73.1136 134.104 73.3243C132.975 73.6209 131.958 73.7691 131.044 73.7691H123.413V57.4436V57.4514ZM128.548 61.1504V70.0701H129.804C130.877 70.0701 131.64 69.9531 132.093 69.719C132.546 69.4849 132.904 69.0791 133.158 68.4938C133.413 67.9085 133.548 66.9642 133.548 65.661C133.548 63.9286 133.262 62.7502 132.689 62.1103C132.117 61.4704 131.163 61.1504 129.828 61.1504H128.548Z" fill="#FFE800"/>
<path d="M141.616 61.9543H145.94V63.8896C146.354 63.0546 146.783 62.4771 147.228 62.1572C147.673 61.845 148.214 61.6812 148.865 61.6812C149.517 61.6812 150.288 61.8919 151.099 62.3055L149.668 65.5362C149.128 65.3099 148.691 65.2007 148.373 65.2007C147.769 65.2007 147.3 65.4426 146.966 65.9342C146.489 66.621 146.25 67.9164 146.25 69.8127V73.777H141.616V61.9543Z" fill="#FFE800"/>
<path d="M152.148 67.901C152.148 66.0984 152.768 64.6078 154.008 63.4451C155.248 62.2745 156.925 61.6892 159.032 61.6892C161.44 61.6892 163.268 62.3759 164.5 63.7494C165.494 64.8575 165.987 66.2154 165.987 67.8386C165.987 69.6569 165.375 71.1474 164.143 72.3102C162.911 73.4729 161.217 74.0504 159.047 74.0504C157.108 74.0504 155.55 73.5666 154.35 72.6067C152.879 71.4127 152.148 69.8442 152.148 67.9088M156.774 67.901C156.774 68.9545 156.989 69.7349 157.426 70.2422C157.863 70.7494 158.404 70.9991 159.063 70.9991C159.723 70.9991 160.272 70.7494 160.701 70.25C161.13 69.7505 161.345 68.9545 161.345 67.8542C161.345 66.8319 161.13 66.0671 160.701 65.5677C160.272 65.0682 159.739 64.8185 159.103 64.8185C158.427 64.8185 157.871 65.0761 157.434 65.5833C156.997 66.0905 156.774 66.8631 156.774 67.901Z" fill="#FFE800"/>
<path d="M177.059 61.9545H181.383V73.6446C181.391 74.386 181.232 75.0961 180.914 75.7673C180.596 76.4384 180.167 76.9846 179.634 77.3982C179.102 77.8118 178.426 78.1162 177.6 78.3035C176.781 78.4908 175.843 78.5844 174.786 78.5844C172.369 78.5844 170.708 78.2255 169.802 77.5153C168.896 76.8052 168.443 75.8453 168.443 74.6513C168.443 74.503 168.451 74.3001 168.466 74.0504L172.95 74.5499C173.061 74.9557 173.236 75.2366 173.474 75.3927C173.816 75.6268 174.245 75.736 174.754 75.736C175.422 75.736 175.914 75.5644 176.248 75.2132C176.574 74.862 176.741 74.2533 176.741 73.3871V71.5922C176.288 72.1229 175.835 72.5053 175.382 72.7394C174.674 73.114 173.903 73.2934 173.077 73.2934C171.463 73.2934 170.167 72.6067 169.174 71.2254C168.466 70.2422 168.117 68.9467 168.117 67.3392C168.117 65.4975 168.57 64.0928 169.476 63.1329C170.382 62.1652 171.574 61.6892 173.037 61.6892C173.975 61.6892 174.746 61.8453 175.358 62.1574C175.97 62.4696 176.534 62.9846 177.067 63.7026V61.9545H177.059ZM172.711 67.6903C172.711 68.5409 172.894 69.173 173.267 69.5866C173.641 70.0002 174.126 70.2031 174.73 70.2031C175.334 70.2031 175.787 69.9924 176.177 69.5632C176.566 69.134 176.765 68.4941 176.765 67.6357C176.765 66.7773 176.558 66.114 176.153 65.6613C175.747 65.2009 175.247 64.9746 174.658 64.9746C174.07 64.9746 173.601 65.1853 173.244 65.6067C172.894 66.0281 172.719 66.7227 172.719 67.6981" fill="#FFE800"/>
<path d="M197.328 73.7771H193.019V71.8652C192.376 72.6533 191.732 73.2152 191.072 73.543C190.42 73.8785 189.617 74.0424 188.663 74.0424C187.392 74.0424 186.398 73.6678 185.675 72.9265C184.951 72.1773 184.594 71.0302 184.594 69.4772V61.9465H189.236V68.4471C189.236 69.1885 189.379 69.7191 189.657 70.0313C189.935 70.3434 190.333 70.4995 190.833 70.4995C191.39 70.4995 191.835 70.2888 192.193 69.8752C192.542 69.4616 192.717 68.7124 192.717 67.6355V61.9465H197.336V73.7693L197.328 73.7771Z" fill="#FFE800"/>
<path d="M213.965 68.9933H204.713C204.792 69.7191 204.999 70.2653 205.317 70.6165C205.762 71.1315 206.342 71.3891 207.066 71.3891C207.519 71.3891 207.948 71.2798 208.361 71.0535C208.608 70.913 208.878 70.6633 209.164 70.3043L213.711 70.7179C213.011 71.9041 212.177 72.7547 211.191 73.2698C210.205 73.7848 208.798 74.0423 206.962 74.0423C205.365 74.0423 204.109 73.8238 203.195 73.379C202.281 72.9342 201.517 72.2319 200.921 71.272C200.317 70.3121 200.015 69.1806 200.015 67.8774C200.015 66.0279 200.619 64.5295 201.827 63.3902C203.036 62.2508 204.697 61.6733 206.827 61.6733C208.552 61.6733 209.911 61.9309 210.913 62.4381C211.906 62.9532 212.669 63.6945 213.194 64.6622C213.719 65.6377 213.973 66.9019 213.973 68.4626V68.9777L213.965 68.9933ZM209.267 66.8238C209.18 65.9498 208.934 65.3177 208.544 64.9431C208.155 64.5685 207.646 64.3735 207.01 64.3735C206.279 64.3735 205.691 64.6622 205.253 65.2319C204.975 65.5908 204.792 66.1215 204.721 66.8238H209.267Z" fill="#FFE800"/>
<path d="M216.595 61.9543H220.919V63.8896C221.333 63.0546 221.762 62.4771 222.207 62.1572C222.652 61.845 223.193 61.6812 223.845 61.6812C224.496 61.6812 225.267 61.8919 226.078 62.3055L224.647 65.5362C224.107 65.3099 223.67 65.2007 223.352 65.2007C222.748 65.2007 222.279 65.4426 221.945 65.9342C221.468 66.621 221.229 67.9164 221.229 69.8127V73.777H216.587V61.9543H216.595Z" fill="#FFE800"/>
<path d="M227.493 61.9544H232.111V73.7771H227.493V61.9544ZM229.671 57.1785H233.637L229.973 60.5107H227.763L229.671 57.1785Z" fill="#FFE800"/>
<path d="M239.735 65.7862L235.323 65.3258C235.49 64.5688 235.729 63.9757 236.046 63.5387C236.356 63.1017 236.81 62.7271 237.398 62.4072C237.819 62.173 238.407 62.0014 239.146 61.8765C239.886 61.7516 240.689 61.6892 241.547 61.6892C242.93 61.6892 244.043 61.7672 244.885 61.9155C245.728 62.0716 246.428 62.3837 246.984 62.8676C247.373 63.2031 247.683 63.6792 247.914 64.2879C248.144 64.8966 248.256 65.4818 248.256 66.0437V71.2645C248.256 71.8185 248.288 72.2555 248.367 72.5755C248.439 72.8876 248.598 73.2934 248.836 73.7851H244.504C244.329 73.4807 244.218 73.2466 244.162 73.0906C244.107 72.9345 244.059 72.6847 244.003 72.3414C243.399 72.9111 242.795 73.3247 242.199 73.5666C241.38 73.8943 240.434 74.0582 239.353 74.0582C237.914 74.0582 236.825 73.7305 236.078 73.0749C235.331 72.4194 234.958 71.6156 234.958 70.6558C234.958 69.7583 235.228 69.017 235.76 68.4395C236.301 67.862 237.286 67.4328 238.733 67.1519C240.466 66.8085 241.587 66.5744 242.103 66.4339C242.62 66.2934 243.161 66.114 243.733 65.8955C243.733 65.3414 243.614 64.9512 243.383 64.7249C243.153 64.4986 242.739 64.3893 242.143 64.3893C241.388 64.3893 240.824 64.5064 240.442 64.7483C240.148 64.9356 239.91 65.2789 239.727 65.794M243.733 68.1742C243.097 68.4005 242.437 68.5956 241.746 68.7672C240.808 69.0092 240.212 69.2511 239.965 69.493C239.711 69.7349 239.584 70.0159 239.584 70.328C239.584 70.687 239.711 70.9757 239.965 71.202C240.22 71.4283 240.593 71.5454 241.086 71.5454C241.579 71.5454 242.08 71.4205 242.517 71.1786C242.962 70.9289 243.272 70.6324 243.455 70.2812C243.638 69.93 243.733 69.4696 243.733 68.9077V68.182V68.1742Z" fill="#FFE800"/>
</g>
<defs>
<clipPath id="clip0_2001_2144">
<rect width="372" height="84.2263" fill="white"/>
</clipPath>
</defs>
</svg>
